<svg width="90" height="138" viewBox="0 0 90 138" fill="none" xmlns="http://www.w3.org/2000/svg">
<path d="M0 137.308V113.189H48.199C57.7962 113.189 65.6872 105.573 65.6872 95.8406C65.6872 86.32 57.7962 78.492 48.4123 78.492H48.199H0V52.469H45.2133C53.3175 52.469 60.1422 45.9104 60.1422 37.6592C60.1422 29.6196 53.3175 22.8494 45.2133 22.8494H0V0H44.5735C65.6872 0 82.7488 16.9255 82.7488 37.6592C82.7488 47.3914 79.1232 56.0657 73.3649 62.6243C83.3886 70.2408 90 82.3002 90 95.8406C90 118.902 71.2322 137.308 48.199 137.308H0Z" fill="#10B981"/>
</svg>
