<svg width="250" height="75" viewBox="0 0 350 75" fill="none" xmlns="http://www.w3.org/2000/svg">
<path d="M41.409 33.0856C48.692 35.1665 56.1831 41.7212 56.1831 52.1254C56.1831 65.4429 47.8597 73.5583 29.6522 73.5583H0V0.728299H27.6754C42.9697 0.728299 50.6688 9.36385 50.6688 19.1439C50.6688 27.1552 45.4667 31.2128 41.409 33.0856ZM26.1147 15.2943H16.7509V28.2996H26.1147C32.0452 28.2996 34.022 25.5945 34.022 21.7449C34.022 17.5832 31.525 15.2943 26.1147 15.2943ZM28.7158 58.9923C36.1028 58.9923 39.4322 55.871 39.4322 49.9405C39.4322 44.9465 36.1028 41.7212 27.8835 41.7212H16.7509V58.9923H28.7158ZM84.8989 74.3906C74.8068 74.3906 64.5065 67.6278 64.5065 50.4608V19.456H80.9453V49.3163C80.9453 57.5357 83.7544 60.1367 88.9566 60.1367C96.3436 60.1367 100.609 52.9578 101.65 49.8365V19.456H118.089V73.5583H101.65V64.1944C100.609 66.7955 95.0951 74.3906 84.8989 74.3906ZM145.14 0V13.8377H128.701V0H145.14ZM145.14 19.456V73.5583H128.701V19.456H145.14ZM172.191 0V73.5583H155.752V0H172.191ZM221.715 0H238.154V26.4269V73.5583H221.715V68.148C220.987 70.0208 216.097 74.5987 207.773 74.5987C195.392 74.5987 181.139 65.755 181.139 46.4031C181.139 27.7794 195.392 18.5196 207.773 18.5196C216.097 18.5196 220.987 23.3056 221.715 24.4501V0ZM210.166 60.1367C216.929 60.1367 222.443 55.4548 222.443 46.4031C222.443 37.6635 216.929 32.9816 210.166 32.9816C203.092 32.9816 197.057 37.7675 197.057 46.4031C197.057 55.3508 203.092 60.1367 210.166 60.1367ZM275.609 18.5196C287.886 18.5196 305.053 27.7794 301.62 52.2295H263.853C265.725 57.8478 270.615 60.761 277.17 60.761C283.829 60.761 285.91 59.3044 289.655 57.7437L298.707 66.4833C293.921 71.1653 287.47 74.5987 276.546 74.5987C263.124 74.5987 247.102 65.3389 247.102 46.7152C247.102 27.7794 263.332 18.5196 275.609 18.5196ZM275.609 32.5654C270.927 32.5654 266.141 35.2705 264.061 40.6807H287.054C285.389 35.2705 280.291 32.5654 275.609 32.5654ZM345.734 18.6237C347.191 18.6237 348.647 18.6237 350 18.9358V34.6463C348.751 34.3341 347.295 34.3341 346.254 34.3341C336.266 34.3341 328.255 41.5131 327.423 51.5012V73.5583H310.984V19.456H327.423V32.6694C329.92 24.5541 336.162 18.6237 345.734 18.6237Z" fill="#000000"/>
</svg>
