<svg width="286" height="75" viewBox="0 0 286 75" fill="none" xmlns="http://www.w3.org/2000/svg">
<path d="M20.899 74.3906C10.8068 74.3906 0.506592 67.6278 0.506592 50.4608V19.456H16.9454V49.3163C16.9454 57.5357 19.7545 60.1367 24.9566 60.1367C32.3437 60.1367 36.6094 52.9578 37.6499 49.8365V19.456H54.0886V73.5583H37.6499V64.1944C36.6094 66.7955 31.0952 74.3906 20.899 74.3906ZM81.1397 0V13.8377H64.701V0H81.1397ZM81.1397 19.456V73.5583H64.701V19.456H81.1397ZM108.191 0V73.5583H91.7521V0H108.191ZM157.715 0H174.154V26.4269V73.5583H157.715V68.148C156.987 70.0208 152.097 74.5987 143.773 74.5987C131.392 74.5987 117.139 65.755 117.139 46.4031C117.139 27.7794 131.392 18.5196 143.773 18.5196C152.097 18.5196 156.987 23.3056 157.715 24.4501V0ZM146.167 60.1367C152.929 60.1367 158.444 55.4548 158.444 46.4031C158.444 37.6635 152.929 32.9816 146.167 32.9816C139.092 32.9816 133.057 37.7675 133.057 46.4031C133.057 55.3508 139.092 60.1367 146.167 60.1367ZM211.609 18.5196C223.886 18.5196 241.054 27.7794 237.62 52.2295H199.853C201.725 57.8478 206.615 60.761 213.17 60.761C219.829 60.761 221.91 59.3044 225.655 57.7437L234.707 66.4833C229.921 71.1653 223.47 74.5987 212.546 74.5987C199.124 74.5987 183.102 65.3389 183.102 46.7152C183.102 27.7794 199.332 18.5196 211.609 18.5196ZM211.609 32.5654C206.928 32.5654 202.142 35.2705 200.061 40.6807H223.054C221.389 35.2705 216.291 32.5654 211.609 32.5654ZM281.734 18.6237C283.191 18.6237 284.648 18.6237 286 18.9358V34.6463C284.752 34.3341 283.295 34.3341 282.255 34.3341C272.266 34.3341 264.255 41.5131 263.423 51.5012V73.5583H246.984V19.456H263.423V32.6694C265.92 24.5541 272.162 18.6237 281.734 18.6237Z" fill="#fff"/>
</svg>
